<svg viewBox="-102.698 -40.679 162.406 166.165" width="162.406" height="166.165" xmlns="http://www.w3.org/2000/svg"><path d="M-102.698-40.679H59.708v166.165h-162.406z" fill="#c5412b"/><path d="M-80.846 61.528l-.167-33.888s18.084 6.442 30.44 6.655l.2 21.718s-14.542-.005-30.08 5.772"/><path style="marker:none" d="M-44.198 34.096l9.96-.2.2 22.117H-43.8zm26.096 4.282l-6.431 6.862 6.845 6.942 6.337-7.183zm-9.762-20.534l21.393-.1.2 10.349h-21.295zM-.003 48.192l-15.225 15.125 7.463 7.263L6.563 56.013z" color="#000" overflow="visible"/><path d="M-34.051-19.511l33.888-.168s-6.74 18.98-6.953 31.334l-20.624.1s-.791-15.337-6.568-30.875m72.892 96.694l-23.78 24.144S6.101 83.555-2.509 74.691l14.473-14.694s11.433 10.256 26.523 17.117"/></svg>